<svg width="12" height="12" viewBox="0 0 12 12" fill="none" xmlns="http://www.w3.org/2000/svg">
<path d="M8.15297 3.13644C8.37418 3.13644 8.55333 2.95558 8.55333 2.73248V1.40396C8.55333 1.18086 8.37418 1 8.15297 1C7.93197 1 7.75261 1.18086 7.75261 1.40396V2.73248C7.75261 2.95558 7.93197 3.13644 8.15297 3.13644ZM3.84703 3.13644C4.06803 3.13644 4.24739 2.95558 4.24739 2.73248V1.40396C4.24739 1.18086 4.06803 1 3.84703 1C3.62582 1 3.44667 1.18086 3.44667 1.40396V2.73248C3.44667 2.95558 3.62582 3.13644 3.84703 3.13644ZM10.4662 1.98727H9.03376V2.73248C9.03376 3.22251 8.63863 3.62119 8.15297 3.62119C7.66731 3.62119 7.27218 3.22251 7.27218 2.73248V1.98727H4.72782V2.73248C4.72782 3.22251 4.33269 3.62119 3.84703 3.62119C3.36137 3.62119 2.96624 3.22251 2.96624 2.73248V1.98727H1.53381C1.23893 1.98727 1 2.22835 1 2.52587V4.73417H11V2.52587C11 2.22835 10.7611 1.98727 10.4662 1.98727ZM1 10.4614C1 10.7589 1.23893 11 1.53381 11H10.4662C10.7611 11 11 10.7589 11 10.4614V5.16505H1V10.4614ZM8.39009 6.44424H9.75579V7.82222H8.39009V6.44424ZM8.39009 8.41016H9.75579V9.78813H8.39009V8.41016ZM6.34143 6.44424H7.70713V7.82222H6.34143V6.44424ZM6.34143 8.41016H7.70713V9.78813H6.34143V8.41016ZM4.29287 6.44424H5.65857V7.82222H4.29287V6.44424ZM4.29287 8.41016H5.65857V9.78813H4.29287V8.41016ZM2.24421 6.44424H3.60991V7.82222H2.24421V6.44424ZM2.24421 8.41016H3.60991V9.78813H2.24421V8.41016Z" fill="#3E52BE"/>
</svg>
